<svg width="51" height="50" viewBox="0 0 51 50" fill="none" xmlns="http://www.w3.org/2000/svg">
<g clip-path="url(#clip0_0_156)">
<path d="M46.6873 12.5C46.3394 11.8958 45.8581 11.3688 45.329 11.0625L26.9623 0.458337C25.9019 -0.154163 24.1706 -0.154163 23.1123 0.458337L4.74146 11.0625C3.68313 11.6729 2.81854 13.1729 2.81854 14.3958V35.6042C2.81854 36.2167 3.03521 36.8958 3.38313 37.5C3.73104 38.1042 4.21229 38.6313 4.74146 38.9375L23.1081 49.5417C24.1665 50.1521 25.8998 50.1521 26.9581 49.5417L45.3248 38.9375C45.854 38.6313 46.3352 38.1042 46.6831 37.5C47.031 36.8958 47.2456 36.2167 47.2456 35.6042V14.3958C47.2519 13.7833 47.0373 13.1042 46.6873 12.5ZM25.0331 39.8125C16.8665 39.8125 10.2227 33.1667 10.2227 25C10.2227 16.8333 16.8685 10.1875 25.0352 10.1875C27.6335 10.1924 30.185 10.8785 32.4354 12.1773C34.6857 13.4761 36.5562 15.3423 37.8602 17.5896L31.4519 21.2979C30.8003 20.1724 29.8648 19.2375 28.7388 18.5868C27.6128 17.936 26.3357 17.5922 25.0352 17.5896C23.0704 17.5912 21.1864 18.3725 19.7971 19.7619C18.4077 21.1512 17.6264 23.0351 17.6248 25C17.6275 26.9638 18.409 28.8463 19.7978 30.2347C21.1866 31.6231 23.0694 32.404 25.0331 32.4063C26.3331 32.4035 27.6097 32.06 28.7355 31.41C29.8614 30.7601 30.7972 29.8264 31.4498 28.7021L37.8623 32.4104C36.5576 34.6581 34.6864 36.5243 32.4353 37.8232C30.1842 39.122 27.632 39.8079 25.0331 39.8125ZM39.8456 25.8229H38.1998V27.4688H36.554V25.8229H34.9081V24.1771H36.554V22.5313H38.1998V24.1771H39.8456V25.8229ZM46.0165 25.8229H44.3706V27.4688H42.7248V25.8229H41.079V24.1771H42.7248V22.5313H44.3706V24.1771H46.0165V25.8229Z" fill="black"/>
</g>
<defs>
<clipPath id="clip0_0_156">
<rect width="50" height="50" fill="white" transform="translate(0.0331421)"/>
</clipPath>
</defs>
</svg>
