<svg width="51" height="50" viewBox="0 0 51 50" fill="none" xmlns="http://www.w3.org/2000/svg">
<g clip-path="url(#clip0_0_141)">
<path d="M15.6623 0H21.0331V2.24583H17.9081V4.49167H21.0331V6.7375H15.6623V0ZM22.1061 0H27.479V1.95417H24.354V2.34375H27.479V6.83542H22.1061V4.78542H25.2311V4.39375H22.1061V0ZM28.554 0H33.9227V1.95417H30.7977V2.34375H33.9227V6.83542H28.554V4.78542H31.679V4.39375H28.554V0Z" fill="black"/>
<path fill-rule="evenodd" clip-rule="evenodd" d="M25.0144 50L10.5477 45.9833L6.28314 9.82709H43.7831L39.5206 45.9792L25.0144 50ZM14.7144 26.1938L15.1123 30.6271H30.4811L29.9665 36.3771L25.0206 37.7146H25.0165L20.079 36.3813L19.7623 32.8458H15.3102L15.9311 39.8083L25.0144 42.3292L34.1123 39.8083L35.2206 27.3833L35.329 26.1938L36.129 17.2167H13.9165L14.3206 21.6521H31.2706L30.8665 26.1938H14.7144Z" fill="black"/>
</g>
<defs>
<clipPath id="clip0_0_141">
<rect width="50" height="50" fill="white" transform="translate(0.0331421)"/>
</clipPath>
</defs>
</svg>
