<svg width="51" height="50" viewBox="0 0 51 50" fill="none" xmlns="http://www.w3.org/2000/svg">
<path d="M10.6165 0H12.8706V2.22708H14.9331V0H17.1873V6.74167H14.9331V4.48542H12.8706V6.74167H10.6186V0H10.6165ZM20.1498 2.23542H18.1665V0H24.3894V2.23542H22.404V6.74167H20.1498V2.23542ZM25.3769 0H27.7269L29.1727 2.36875L30.6165 0H32.9665V6.74167H30.7227V3.4L29.1727 5.79792H29.1331L27.5811 3.40208V6.74167H25.3769V0ZM34.0873 0H36.3436V4.51458H39.5102V6.74375H34.0873V0Z" fill="black"/>
<path fill-rule="evenodd" clip-rule="evenodd" d="M10.5456 45.9833L6.28314 9.82709H43.7831L39.5186 45.9792L25.0123 50L10.5456 45.9833ZM19.1644 26.1917L18.7602 21.65H35.729L36.1248 17.2167H13.9165L15.1123 30.6271H30.4811L29.9665 36.3771L25.0206 37.7146H25.0165L20.079 36.3813L19.7623 32.8458H15.3081L15.929 39.8083L25.0123 42.3292L34.1102 39.8083L35.2186 27.3833L35.3269 26.1938H19.1644V26.1917Z" fill="black"/>
</svg>
