<svg width="51" height="50" viewBox="0 0 51 50" fill="none" xmlns="http://www.w3.org/2000/svg">
<g clip-path="url(#clip0_0_120)">
<path d="M34.2129 11.825C33.9691 11.825 33.8066 11.8578 33.6425 11.8984V11.9234H33.6675C33.7816 12.1344 33.9691 12.2984 34.1144 12.4938C34.2285 12.7141 34.3254 12.9406 34.4316 13.1609L34.4644 13.1281C34.6597 12.9891 34.7582 12.7703 34.7582 12.4359C34.6769 12.3375 34.6597 12.2328 34.5879 12.1422C34.5066 12.0031 34.3269 11.9313 34.2129 11.825ZM12.0535 39.3141H10.1254C10.067 36.2451 9.87982 33.1799 9.56442 30.1266H9.54879L6.61129 39.3141H5.13785L2.22379 30.1266H2.19879C1.97233 33.1844 1.83686 36.2482 1.79254 39.3141H0.034729C0.129911 35.4612 0.415153 31.6154 0.889417 27.7906H3.2816L6.06442 36.2547H6.08004L8.88785 27.7906H11.166C11.6707 31.9906 11.9722 35.8313 12.0613 39.3141H12.0535ZM20.4191 30.8109C19.6379 35.075 18.5957 38.1766 17.3191 40.1047C16.3097 41.5938 15.2113 42.3422 14.0144 42.3422C13.6972 42.3422 13.3066 42.2438 12.8347 42.0484V41.0234C13.0707 41.0563 13.3394 41.0797 13.641 41.0797C14.2019 41.0797 14.6504 40.9172 14.9925 40.6156C15.3988 40.2406 15.6035 39.8188 15.6035 39.3547C15.6035 39.0297 15.4488 38.3781 15.1238 37.3859L13.016 30.8109H14.9129L16.4269 35.7266C16.7691 36.85 16.916 37.6234 16.8504 38.0703C17.6879 35.8563 18.266 33.4313 18.5925 30.8109H20.4191ZM46.1019 39.3141H40.6175V27.7906H42.4644V37.8984H46.1019V39.3141ZM39.1847 39.5922L37.0691 38.55C37.2566 38.3953 37.4347 38.225 37.5988 38.0297C38.5019 36.9797 38.9504 35.4094 38.9504 33.3422C38.9504 29.525 37.4535 27.6219 34.4582 27.6219C32.9925 27.6219 31.8457 28.1016 31.0238 29.0703C30.1285 30.1281 29.6722 31.6906 29.6722 33.75C29.6722 35.7766 30.0707 37.2578 30.8691 38.2094C31.6019 39.0563 32.7004 39.4875 34.1738 39.4875C34.7191 39.4875 35.2238 39.4219 35.68 39.2844L38.4394 40.8953L39.1957 39.5938L39.1847 39.5922ZM32.3254 37.0031C31.8535 36.2547 31.6254 35.05 31.6254 33.3891C31.6254 30.4844 32.505 29.0359 34.2707 29.0359C35.191 29.0359 35.8738 29.3859 36.305 30.0781C36.7691 30.8344 37.005 32.0234 37.005 33.6672C37.005 36.5891 36.1175 38.0625 34.3597 38.0625C33.4316 38.0625 32.7566 37.7125 32.3175 37.0203L32.3254 37.0031ZM28.8738 36.125C28.8738 37.1016 28.516 37.9078 27.791 38.525C27.0754 39.1516 26.1222 39.4688 24.9097 39.4688C23.7785 39.4688 22.6957 39.1109 21.63 38.3938L22.1269 37.4016C23.0379 37.8578 23.8597 38.0859 24.6097 38.0859C25.3019 38.0859 25.8472 37.9313 26.2379 37.6297C26.6285 37.3203 26.8644 36.8891 26.8644 36.3438C26.8644 35.6594 26.3847 35.0734 25.5129 34.5859C24.7066 34.1391 23.0879 33.2188 23.0879 33.2188C22.2082 32.5766 21.7769 31.8922 21.7769 30.7609C21.7769 29.825 22.1019 29.0766 22.7535 28.5063C23.4129 27.9203 24.2504 27.6359 25.2925 27.6359C26.3294 27.6269 27.3459 27.9243 28.2144 28.4906L27.7675 29.4828C27.0694 29.1754 26.3163 29.0122 25.5535 29.0031C24.9597 29.0031 24.5035 29.15 24.1863 29.4344C23.8691 29.7188 23.6738 30.0766 23.6738 30.525C23.6738 31.2094 24.1629 31.7953 25.0566 32.2984C25.8785 32.7453 27.53 33.6906 27.53 33.6906C28.4332 34.325 28.8816 35.0094 28.8816 36.1234L28.8738 36.125ZM48.4144 23.9266C47.2988 23.9016 46.4363 24.0156 45.7129 24.325C45.5097 24.4063 45.1754 24.4063 45.1425 24.6672C45.2566 24.7813 45.2722 24.9609 45.3707 25.1141C45.541 25.3906 45.8269 25.7656 46.0957 25.9609C46.3894 26.1891 46.6816 26.4172 46.9832 26.6125C47.5285 26.9469 48.1394 27.1422 48.6754 27.475C48.9769 27.6703 49.2863 27.9219 49.5863 28.1266C49.741 28.2328 49.8379 28.4203 50.0332 28.4844V28.4438C49.9347 28.3219 49.9113 28.1422 49.8129 27.9969C49.6738 27.8578 49.5363 27.7359 49.3972 27.5984C48.9897 27.0574 48.5012 26.5826 47.9488 26.1906C47.5019 25.8891 46.5254 25.4656 46.3457 24.9531L46.3207 24.9203C46.6222 24.8953 46.98 24.7813 47.2722 24.7C47.7441 24.5781 48.1832 24.6016 48.6722 24.4797C48.8966 24.4215 49.1191 24.3563 49.3394 24.2844V24.1625C49.0879 23.9109 48.9004 23.5688 48.6394 23.3328C47.9204 22.7036 47.1529 22.1321 46.3441 21.6234C45.905 21.3391 45.3519 21.1594 44.8879 20.9234C44.7254 20.8422 44.441 20.8016 44.3504 20.6625C44.0988 20.3531 43.9519 19.9547 43.7722 19.5875C43.3635 18.7931 42.9836 17.9843 42.6332 17.1625C42.3816 16.6172 42.2347 16.0797 41.9254 15.575C40.4925 13.2063 38.93 11.775 36.5379 10.3672C36.0254 10.0734 35.4066 9.95157 34.755 9.79688C34.405 9.78126 34.0629 9.75626 33.7129 9.74063C33.4847 9.64219 33.266 9.38282 33.0707 9.25157C32.2738 8.74688 30.2222 7.66407 29.6441 9.09688C29.2691 10.0078 30.1972 10.8953 30.5238 11.3516C30.7597 11.6766 31.0613 12.0359 31.2316 12.3938C31.33 12.6375 31.3535 12.8906 31.4519 13.1422C31.6722 13.7531 31.8832 14.4359 32.1769 15.0063C32.3316 15.3 32.4941 15.6078 32.6894 15.8688C32.8035 16.0234 32.9988 16.0891 33.0394 16.3406C32.8441 16.625 32.8285 17.0406 32.7222 17.3828C32.2175 18.9609 32.4129 20.9063 33.1207 22.0703C33.3488 22.4203 33.8769 23.1859 34.5863 22.8922C35.2129 22.6406 35.0754 21.85 35.2535 21.15C35.2941 20.9797 35.2691 20.8734 35.3519 20.7594V20.7922C35.555 21.1828 35.7504 21.5578 35.93 21.9484C36.3535 22.6328 37.1097 23.3406 37.7363 23.8125C38.0707 24.0641 38.33 24.4969 38.7457 24.65V24.6094H38.7129C38.6238 24.4875 38.5097 24.4297 38.3957 24.3328C38.1318 24.0714 37.8869 23.7916 37.6629 23.4953C37.0847 22.7141 36.5644 21.8516 36.1082 20.9641C35.8884 20.5256 35.6877 20.0777 35.5066 19.6219C35.4254 19.4594 35.4254 19.2063 35.2863 19.125C35.0754 19.4266 34.766 19.6859 34.6191 20.0688C34.3504 20.6625 34.3254 21.4031 34.2207 22.1688C34.1722 22.1844 34.1957 22.1688 34.1722 22.2016C33.7254 22.0875 33.5707 21.6313 33.4066 21.2406C32.9832 20.2484 32.9175 18.6609 33.2769 17.5219C33.3754 17.2281 33.7894 16.3094 33.6269 16.0328C33.5379 15.7641 33.2613 15.6094 33.1144 15.3984C32.9269 15.1375 32.7394 14.8047 32.6097 14.5109C32.2754 13.7297 32.1129 12.8672 31.7472 12.0859C31.5847 11.7281 31.291 11.3531 31.055 11.0203C30.7863 10.6453 30.4941 10.3781 30.2894 9.93751C30.216 9.78282 30.1191 9.53126 30.2332 9.36719C30.2582 9.25313 30.3144 9.21251 30.4285 9.17969C30.6082 9.02501 31.1285 9.22032 31.3082 9.30938C31.8207 9.51251 32.2519 9.70782 32.6832 10.0016C32.8785 10.1406 33.0894 10.4 33.3425 10.4734H33.6363C34.0832 10.5719 34.58 10.4984 34.9957 10.6281C35.7363 10.8641 36.4035 11.2063 37.005 11.5797C38.8447 12.7606 40.3407 14.4054 41.3425 16.3484C41.5129 16.6656 41.5863 16.9594 41.741 17.2922C42.0254 17.9844 42.3925 18.675 42.6847 19.3344C42.9769 19.9938 43.255 20.6609 43.6769 21.2063C43.8879 21.5 44.7191 21.6531 45.1004 21.8C45.3769 21.9297 45.8082 22.0438 46.0519 22.1906C46.5316 22.4844 47.0035 22.8172 47.4519 23.1422C47.68 23.2969 48.3722 23.6469 48.4129 23.9234L48.4144 23.9266Z" fill="black"/>
</g>
<defs>
<clipPath id="clip0_0_120">
<rect width="50" height="50" fill="white" transform="translate(0.0331421)"/>
</clipPath>
</defs>
</svg>
